# xmcd
#
# Track frame offsets: 
#        150
#        19278
#        38086
#        77228
#        100495
#        131667
#
# Disc length: 1944 seconds
#
# Revision: 0
# Processed by: cddbd v1.5.1PL0 Copyright (c) Steve Scherf et al.
# Submitted via: ExactAudioCopy v0.95b3
#
DISCID=4a079606
DTITLE=Johnie Johnson - Johnnie Be Eighty. And Still Bad
DYEAR=2005
DGENRE=Blues
TTITLE0=Beach Weather
TTITLE1=Find Me A Woman
TTITLE2=The Blues Don't Knock
TTITLE3=Lucky Four
TTITLE4=Better Sell My House
TTITLE5=A Good Day
EXTD=
EXTT0=
EXTT1=
EXTT2=
EXTT3=
EXTT4=
EXTT5=
PLAYORDER=
